<?xml version="1.0" standalone="no"?>
<!DOCTYPE svg PUBLIC "-//W3C//DTD SVG 20010904//EN"
 "http://www.w3.org/TR/2001/REC-SVG-20010904/DTD/svg10.dtd">
<svg version="1.0" xmlns="http://www.w3.org/2000/svg"
 width="144.000000pt" height="144.000000pt" viewBox="0 0 144.000000 144.000000"
 preserveAspectRatio="xMidYMid meet">
<metadata>
Created by potrace 1.14, written by Peter Selinger 2001-2017
</metadata>
<g transform="translate(0.000000,144.000000) scale(0.100000,-0.100000)"
fill="#000000" stroke="none">
<path d="M640 1433 c-59 -12 -150 -63 -194 -108 -25 -27 -60 -77 -78 -112 -26
-53 -32 -78 -36 -158 l-5 -95 -81 0 c-58 0 -88 -5 -104 -16 l-22 -15 0 -385
c0 -371 1 -385 20 -404 20 -20 33 -20 580 -20 547 0 560 0 580 20 19 19 20 33
20 400 0 453 10 420 -124 420 l-83 0 -5 94 c-4 77 -10 105 -35 157 -64 135
-184 217 -329 224 -44 2 -90 1 -104 -2z m169 -129 c59 -20 128 -81 155 -138
11 -24 20 -72 24 -123 l5 -83 -273 0 -273 0 5 84 c7 104 39 171 107 220 79 56
158 69 250 40z"/>
</g>
</svg>
